<svg width="400" height="53" viewBox="0 0 400 53" fill="none" xmlns="http://www.w3.org/2000/svg">
<rect width="400" height="53" rx="8" fill="url(#paint0_linear_3_5402)"/>
<path d="M191.547 31.1016V32.7188H177.027V31.1016H183.285V28.5176H178.75V23.3145H187.891V21.3457H178.715V19.7637H189.824V24.8613H180.701V26.918H190.193V28.5176H185.219V31.1016H191.547ZM205.223 20.2207V22.0137C205.223 24.1406 205.223 26.3379 204.643 29.6777L202.656 29.502C203.271 26.373 203.271 24.0703 203.271 22.0137V21.8027H194.113V20.2207H205.223ZM207.068 30.7852V32.3848H192.584V30.7852H207.068ZM221.377 18.6914V30.1699H219.408V18.6914H221.377ZM221.816 32.666V34.248H210.865V29.0098H212.834V32.666H221.816ZM212.711 19.7285C215.119 19.7285 216.982 21.3984 216.982 23.7012C216.982 26.0566 215.119 27.6914 212.711 27.6914C210.285 27.6914 208.422 26.0566 208.422 23.7012C208.422 21.3984 210.285 19.7285 212.711 19.7285ZM212.711 21.4336C211.357 21.4336 210.32 22.3301 210.338 23.7012C210.32 25.1074 211.357 25.9863 212.711 25.9863C214.029 25.9863 215.066 25.1074 215.066 23.7012C215.066 22.3301 214.029 21.4336 212.711 21.4336Z" fill="#F5F5F5"/>
<defs>
<linearGradient id="paint0_linear_3_5402" x1="0.500013" y1="-5.4995e-05" x2="407.5" y2="53" gradientUnits="userSpaceOnUse">
<stop stop-color="#6D6AFE"/>
<stop offset="1" stop-color="#6AE3FE"/>
</linearGradient>
</defs>
</svg>
