<svg width="48" height="48" viewBox="0 0 48 48" fill="none" xmlns="http://www.w3.org/2000/svg">
<rect width="48" height="48" rx="8" fill="#F7F7F7"/>
<path d="M23.9736 30.1758C23.2178 30.1758 22.5293 30.0322 21.9082 29.7451C21.293 29.4521 20.8008 29.0508 20.4316 28.541C20.0684 28.0254 19.8721 27.4453 19.8428 26.8008H21.3721C21.4131 27.1758 21.5537 27.5156 21.7939 27.8203C22.0342 28.1191 22.3447 28.3564 22.7256 28.5322C23.1064 28.7021 23.5225 28.7871 23.9736 28.7871C24.5127 28.7871 24.999 28.6641 25.4326 28.418C25.8662 28.1719 26.2061 27.835 26.4521 27.4072C26.6982 26.9795 26.8213 26.502 26.8213 25.9746C26.8213 25.4297 26.6924 24.9404 26.4346 24.5068C26.1826 24.0674 25.8311 23.7246 25.3799 23.4785C24.9346 23.2266 24.4307 23.0977 23.8682 23.0918C22.7373 23.0742 21.9463 23.4551 21.4951 24.2344H19.9658L20.8623 17.2734H27.7529V18.6797H22.1807L21.7061 22.4062H21.8291C22.1162 22.1836 22.4648 22.0049 22.875 21.8701C23.2852 21.7354 23.71 21.668 24.1494 21.668C24.9463 21.668 25.6641 21.8525 26.3027 22.2217C26.9473 22.585 27.4512 23.0918 27.8145 23.7422C28.1836 24.3926 28.3682 25.125 28.3682 25.9395C28.3682 26.748 28.1777 27.4746 27.7969 28.1191C27.416 28.7637 26.8916 29.2676 26.2236 29.6309C25.5557 29.9941 24.8057 30.1758 23.9736 30.1758Z" fill="#C4C4C4"/>
</svg>
