<svg width="48" height="48" viewBox="0 0 48 48" fill="none" xmlns="http://www.w3.org/2000/svg">
<rect width="48" height="48" rx="8" fill="#F7F7F7"/>
<path d="M23.877 17.0977C24.6914 17.0977 25.4473 17.2852 26.1445 17.6602C26.8418 18.0293 27.4131 18.6621 27.8584 19.5586C28.3096 20.4551 28.5352 21.6445 28.5352 23.127C28.5352 24.6152 28.3389 25.8896 27.9463 26.9502C27.5596 28.0049 27.0029 28.8076 26.2764 29.3584C25.5557 29.9033 24.6973 30.1758 23.7012 30.1758C22.9688 30.1758 22.3096 30.0352 21.7236 29.7539C21.1377 29.4668 20.6572 29.0684 20.2822 28.5586C19.9131 28.0488 19.6758 27.457 19.5703 26.7832H21.1348C21.2812 27.3809 21.5742 27.8613 22.0137 28.2246C22.4531 28.5879 23.0156 28.7695 23.7012 28.7695C24.3926 28.7695 24.9873 28.5791 25.4854 28.1982C25.9893 27.8115 26.376 27.252 26.6455 26.5195C26.915 25.7871 27.0527 24.9082 27.0586 23.8828H26.8828C26.5078 24.416 26.0391 24.832 25.4766 25.1309C24.9141 25.4238 24.2988 25.5703 23.6309 25.5703C22.875 25.5703 22.1777 25.3916 21.5391 25.0342C20.9004 24.6709 20.3936 24.1699 20.0186 23.5312C19.6494 22.8926 19.4648 22.1719 19.4648 21.3691C19.4648 20.584 19.6465 19.8662 20.0098 19.2158C20.3789 18.5654 20.8975 18.0498 21.5654 17.6689C22.2334 17.2881 23.0039 17.0977 23.877 17.0977ZM23.9121 18.4863C23.373 18.4863 22.8809 18.6152 22.4355 18.873C21.9961 19.125 21.6475 19.4678 21.3896 19.9014C21.1377 20.335 21.0117 20.8066 21.0117 21.3164C21.0117 21.8496 21.1318 22.3359 21.3721 22.7754C21.6123 23.209 21.9492 23.5518 22.3828 23.8037C22.8164 24.0557 23.3086 24.1816 23.8594 24.1816C24.3984 24.1816 24.8936 24.0498 25.3447 23.7861C25.7959 23.5166 26.1533 23.1621 26.417 22.7227C26.6807 22.2773 26.8125 21.8086 26.8125 21.3164C26.8125 20.8301 26.6865 20.3701 26.4346 19.9365C26.1826 19.4971 25.834 19.1455 25.3887 18.8818C24.9492 18.6182 24.457 18.4863 23.9121 18.4863Z" fill="#C4C4C4"/>
</svg>
