<svg width="48" height="48" viewBox="0 0 48 48" fill="none" xmlns="http://www.w3.org/2000/svg">
<rect width="48" height="48" rx="8" fill="#F7F7F7"/>
<path d="M19.8955 28.8398L24.2373 24.2695C24.8115 23.666 25.248 23.1797 25.5469 22.8105C25.8516 22.4355 26.0801 22.0752 26.2324 21.7295C26.3906 21.3779 26.4697 21.0117 26.4697 20.6309C26.4697 20.209 26.3584 19.834 26.1357 19.5059C25.9131 19.1777 25.6084 18.9229 25.2217 18.7412C24.8408 18.5596 24.4131 18.4688 23.9385 18.4688C23.4404 18.4688 23.0039 18.5684 22.6289 18.7676C22.2539 18.9668 21.9639 19.248 21.7588 19.6113C21.5596 19.9746 21.46 20.3906 21.46 20.8594H19.9658C19.96 20.1211 20.1299 19.4678 20.4756 18.8994C20.8271 18.3311 21.3105 17.8887 21.9258 17.5723C22.541 17.2559 23.2295 17.0977 23.9912 17.0977C24.7471 17.0977 25.4238 17.2529 26.0215 17.5635C26.625 17.874 27.0967 18.2988 27.4365 18.8379C27.7764 19.377 27.9463 19.9746 27.9463 20.6309C27.9463 21.1172 27.8584 21.583 27.6826 22.0283C27.5068 22.4678 27.2109 22.957 26.7949 23.4961C26.3848 24.0293 25.7959 24.6914 25.0283 25.4824L22.1104 28.4883V28.5938H28.1748V30H19.9131L19.8955 28.8398Z" fill="#C4C4C4"/>
</svg>
