<svg width="48" height="48" viewBox="0 0 48 48" fill="none" xmlns="http://www.w3.org/2000/svg">
<rect width="48" height="48" rx="8" fill="#F7F7F7"/>
<path d="M24.0352 30.1758C23.1973 30.1758 22.4473 30.0352 21.7852 29.7539C21.1289 29.4727 20.6074 29.0771 20.2207 28.5674C19.8398 28.0576 19.6348 27.4688 19.6055 26.8008H21.2051C21.2344 27.1934 21.375 27.5391 21.627 27.8379C21.8848 28.1367 22.2217 28.3682 22.6377 28.5322C23.0537 28.6904 23.5137 28.7695 24.0176 28.7695C24.5684 28.7695 25.0635 28.6758 25.5029 28.4883C25.9482 28.2949 26.2939 28.0312 26.54 27.6973C26.792 27.3574 26.918 26.9707 26.918 26.5371C26.918 26.0684 26.7949 25.6553 26.5488 25.2979C26.3086 24.9404 25.957 24.6621 25.4941 24.4629C25.0312 24.2637 24.4746 24.1641 23.8242 24.1641H22.7871V22.7754H23.8242C24.334 22.7754 24.7881 22.6846 25.1865 22.5029C25.585 22.3213 25.8926 22.0664 26.1094 21.7383C26.332 21.4102 26.4434 21.0293 26.4434 20.5957C26.4434 20.1797 26.3438 19.8105 26.1445 19.4883C25.9512 19.166 25.6758 18.917 25.3184 18.7412C24.9609 18.5596 24.5449 18.4688 24.0703 18.4688C23.6133 18.4688 23.1855 18.5508 22.7871 18.7148C22.3887 18.8789 22.0635 19.1133 21.8115 19.418C21.5596 19.7168 21.4219 20.0684 21.3984 20.4727H19.8691C19.8984 19.8164 20.1035 19.2334 20.4844 18.7236C20.8652 18.208 21.3721 17.8096 22.0049 17.5283C22.6377 17.2412 23.332 17.0977 24.0879 17.0977C24.873 17.0977 25.5586 17.2529 26.1445 17.5635C26.7363 17.8682 27.1904 18.2812 27.5068 18.8027C27.8232 19.3242 27.9785 19.8926 27.9727 20.5078C27.9785 21.2227 27.7881 21.835 27.4014 22.3447C27.0146 22.8545 26.4844 23.2031 25.8105 23.3906V23.4785C26.3555 23.5664 26.8271 23.751 27.2256 24.0322C27.6299 24.3076 27.9375 24.6621 28.1484 25.0957C28.3652 25.5234 28.4707 26.0039 28.4648 26.5371C28.4707 27.2227 28.2803 27.8438 27.8936 28.4004C27.5068 28.9512 26.9736 29.3848 26.2939 29.7012C25.6201 30.0176 24.8672 30.1758 24.0352 30.1758Z" fill="#C4C4C4"/>
</svg>
