<svg width="47" height="18" viewBox="0 0 47 18" fill="none" xmlns="http://www.w3.org/2000/svg">
<path d="M3.6 4.6H14.4V15C14.4 15.7732 13.7732 16.4 13 16.4H5C4.2268 16.4 3.6 15.7732 3.6 15V4.6Z" stroke="#9FA6B2" stroke-width="1.2"/>
<path d="M6.48387 2.5741C6.72102 2.0998 7.20579 1.8002 7.73607 1.8002H10.2639C10.7942 1.8002 11.279 2.0998 11.5161 2.5741L12.5292 4.6002H5.47082L6.48387 2.5741Z" stroke="#9FA6B2" stroke-width="1.2"/>
<rect x="1.5" y="4" width="15" height="1.2" rx="0.6" fill="#9FA6B2"/>
<rect x="9.6001" y="7" width="7" height="1.2" rx="0.6" transform="rotate(90 9.6001 7)" fill="#9FA6B2"/>
<rect x="12.1997" y="7" width="7" height="1.2" rx="0.6" transform="rotate(90 12.1997 7)" fill="#9FA6B2"/>
<rect x="7.2002" y="7" width="7" height="1.2" rx="0.6" transform="rotate(90 7.2002 7)" fill="#9FA6B2"/>
<path d="M26.8398 4.3125C26.8262 5.85742 27.8242 7.33398 29.752 7.94922L28.9863 9.13867C27.5918 8.69434 26.6143 7.76465 26.0879 6.58203C25.541 7.85352 24.5361 8.84473 23.0938 9.33008L22.3145 8.12695C24.3105 7.4707 25.3086 5.88477 25.3086 4.18945V3H26.8398V4.3125ZM32.1582 2.35742V5.46094H33.8809V6.73242H32.1582V9.83594H30.6406V2.35742H32.1582ZM32.1582 10.3828V14.7168H30.6406V11.5996H23.9277V10.3828H32.1582ZM45.1465 2.35742V14.7168H43.6973V2.35742H45.1465ZM42.6309 2.58984V14.1152H41.1953V7.89453H39.418V6.66406H41.1953V2.58984H42.6309ZM38.3242 5.73438C38.3242 7.82617 39.0762 9.91797 40.8398 10.9297L39.9375 12.0508C38.7959 11.3672 38.0371 10.1914 37.6133 8.7832C37.1758 10.3076 36.3896 11.6064 35.2207 12.3379L34.291 11.2031C36.082 10.123 36.8613 7.88086 36.8613 5.73438V4.91406H34.7148V3.68359H40.3203V4.91406H38.3242V5.73438Z" fill="#9FA6B2"/>
</svg>
