<svg width="74" height="18" viewBox="0 0 74 18" fill="none" xmlns="http://www.w3.org/2000/svg">
<path fill-rule="evenodd" clip-rule="evenodd" d="M12.3785 1.90879C12.8194 1.4679 13.5331 1.4679 13.974 1.90879L16.6716 4.60643C17.1125 5.04732 17.1125 5.76099 16.6716 6.20187L7.67572 15.1978C7.5931 15.2804 7.48592 15.334 7.37025 15.3505L3.2526 15.9387C3.08434 15.9628 2.91458 15.9062 2.7944 15.786C2.67421 15.6658 2.61763 15.496 2.64166 15.3278L3.2299 11.2101C3.24642 11.0945 3.30002 10.9873 3.38263 10.9047L12.3785 1.90879ZM13.2103 2.67246C13.1912 2.65335 13.1613 2.65335 13.1422 2.67246L4.27359 11.5411L3.81263 14.7678L7.03933 14.3068L15.9079 5.4382C15.927 5.41908 15.927 5.38923 15.9079 5.37011L13.2103 2.67246Z" fill="#9FA6B2"/>
<path fill-rule="evenodd" clip-rule="evenodd" d="M15.3229 3.2568C15.5338 3.46768 15.5338 3.80959 15.3229 4.02047L8.26412 11.0793C8.05324 11.2902 7.71133 11.2902 7.50045 11.0793C7.28956 10.8684 7.28956 10.5265 7.50045 10.3156L14.5593 3.2568C14.7702 3.04591 15.1121 3.04591 15.3229 3.2568Z" fill="#9FA6B2"/>
<path fill-rule="evenodd" clip-rule="evenodd" d="M3.38277 10.9043C3.59365 10.6934 3.93556 10.6934 4.14645 10.9043L7.67586 14.4337C7.88674 14.6446 7.88674 14.9865 7.67586 15.1973C7.46498 15.4082 7.12307 15.4082 6.91218 15.1973L3.38277 11.6679C3.17189 11.457 3.17189 11.1151 3.38277 10.9043Z" fill="#9FA6B2"/>
<path d="M32.6914 2.35742V14.7305H31.1602V2.35742H32.6914ZM26.0332 3.25977C27.8926 3.25977 29.2461 4.95508 29.2598 7.62109C29.2461 10.3145 27.8926 11.9961 26.0332 11.9961C24.1602 11.9961 22.8066 10.3145 22.8066 7.62109C22.8066 4.95508 24.1602 3.25977 26.0332 3.25977ZM26.0332 4.62695C24.9805 4.62695 24.2695 5.73438 24.2695 7.62109C24.2695 9.52148 24.9805 10.6289 26.0332 10.6289C27.0723 10.6289 27.7832 9.52148 27.7832 7.62109C27.7832 5.73438 27.0723 4.62695 26.0332 4.62695ZM45.7891 8.64648V9.84961H34.4961V8.64648H45.7891ZM44.3945 2.61719V5.78906H37.4355V6.67773H44.6406V7.83984H35.9316V4.68164H42.877V3.80664H35.8906V2.61719H44.3945ZM44.4355 10.7383V14.5664H35.9727V10.7383H44.4355ZM37.4629 11.9414V13.3359H42.9316V11.9414H37.4629ZM60.2812 2.37109V11.4902H58.7637V8.38672H56.2754V9.48047H50.4922V3.17773H52.0098V5.17383H54.7715V3.17773H56.2754V4.50391H58.7637V2.37109H60.2812ZM60.5547 13.2402V14.4707H52.1328V10.5879H53.6777V13.2402H60.5547ZM52.0098 8.27734H54.7715V6.34961H52.0098V8.27734ZM56.2754 7.15625H58.7637V5.73438H56.2754V7.15625ZM72.3809 2.37109V9.58984H70.8633V8.22266H67.9238V6.99219H70.8633V5.66602H68.0469C67.2607 7.63477 65.4629 9.00879 62.7695 9.75391L62.1543 8.55078C65.0459 7.76465 66.584 6.30176 66.8301 4.46289H62.8105V3.23242H68.4844C68.4844 3.66309 68.4502 4.07324 68.375 4.46289H70.8633V2.37109H72.3809ZM68.293 9.72656C70.7949 9.72656 72.4629 10.6699 72.4629 12.1875C72.4629 13.7051 70.7949 14.6484 68.293 14.6484C65.7637 14.6484 64.0957 13.7051 64.0957 12.1875C64.0957 10.6699 65.7637 9.72656 68.293 9.72656ZM68.293 10.916C66.625 10.916 65.6133 11.3672 65.6133 12.1875C65.6133 12.9941 66.625 13.4453 68.293 13.4453C69.9199 13.4453 70.9453 12.9941 70.9453 12.1875C70.9453 11.3672 69.9199 10.916 68.293 10.916Z" fill="#9FA6B2"/>
</svg>
