<svg width="47" height="18" viewBox="0 0 47 18" fill="none" xmlns="http://www.w3.org/2000/svg">
<g clip-path="url(#clip0_4826_2413)">
<path fill-rule="evenodd" clip-rule="evenodd" d="M7.3951 10.545C7.1315 10.2813 7.1315 9.85396 7.3951 9.59036L13.8296 3.02012H10.368C9.99525 3.02012 9.69304 2.71792 9.69304 2.34512C9.69304 1.97233 9.99525 1.67012 10.368 1.67012H15.4592C15.832 1.67012 16.1342 1.97233 16.1342 2.34512L16.1342 7.43629C16.1342 7.80909 15.832 8.11129 15.4592 8.11129C15.0864 8.11129 14.7842 7.80908 14.7842 7.43629L14.7842 3.97472L8.3497 10.545C8.0861 10.8086 7.65871 10.8086 7.3951 10.545Z" fill="#9FA6B2"/>
<path fill-rule="evenodd" clip-rule="evenodd" d="M4.4999 4.2748C3.87858 4.2748 3.3749 4.77848 3.3749 5.3998V13.4998C3.3749 14.1211 3.87858 14.6248 4.4999 14.6248H12.5999C13.2212 14.6248 13.7249 14.1211 13.7249 13.4998V10.3498C13.7249 9.97701 14.0271 9.67481 14.3999 9.67481C14.7727 9.67481 15.0749 9.97701 15.0749 10.3498V13.4998C15.0749 14.8667 13.9668 15.9748 12.5999 15.9748H4.4999C3.133 15.9748 2.0249 14.8667 2.0249 13.4998V5.3998C2.0249 4.0329 3.133 2.9248 4.4999 2.9248H7.6499C8.02269 2.9248 8.3249 3.22701 8.3249 3.5998C8.3249 3.9726 8.02269 4.2748 7.6499 4.2748H4.4999Z" fill="#9FA6B2"/>
</g>
<path d="M27.9746 10.082C30.6543 10.0957 32.3496 10.9434 32.3633 12.4062C32.3496 13.8418 30.6543 14.7031 27.9746 14.7031C25.3086 14.7031 23.5996 13.8418 23.5996 12.4062C23.5996 10.9434 25.3086 10.0957 27.9746 10.082ZM27.9746 11.2305C26.1973 11.2305 25.1172 11.6543 25.1309 12.4062C25.1172 13.1309 26.1973 13.5273 27.9746 13.5273C29.7656 13.5273 30.8457 13.1309 30.8594 12.4062C30.8457 11.6543 29.7656 11.2305 27.9746 11.2305ZM32.2812 2.94531V3.9707C32.2812 4.94141 32.2812 5.98047 31.9395 7.25195L30.4355 7.11523C30.7432 5.91211 30.7637 5.04395 30.7637 4.14844H23.7227V2.94531H32.2812ZM33.6484 7.96289V9.19336H22.4375V7.96289H26.7852V5.7207H28.2891V7.96289H33.6484ZM45.7891 9.28906V10.5195H43.041V14.7168H41.4961V10.5195H38.7617V14.7168H37.2031V10.5195H34.4961V9.28906H45.7891ZM40.1152 2.79492C42.7402 2.80859 44.5723 3.875 44.5723 5.55664C44.5723 7.21094 42.7402 8.26367 40.1152 8.26367C37.4766 8.26367 35.6719 7.21094 35.6855 5.55664C35.6719 3.875 37.4766 2.80859 40.1152 2.79492ZM40.1152 4.02539C38.3652 4.02539 37.2305 4.58594 37.2441 5.55664C37.2305 6.5 38.3652 7.06055 40.1152 7.06055C41.8652 7.06055 43 6.5 43 5.55664C43 4.58594 41.8652 4.02539 40.1152 4.02539Z" fill="#9FA6B2"/>
<defs>
<clipPath id="clip0_4826_2413">
<rect width="18" height="18" fill="white"/>
</clipPath>
</defs>
</svg>
